<?xml version="1.0" encoding="UTF-8"?>
<svg id="Layer_1" xmlns="http://www.w3.org/2000/svg" xmlns:xlink="http://www.w3.org/1999/xlink" version="1.1" viewBox="0 0 850.4 850.4">
  <!-- Generator: Adobe Illustrator 29.0.1, SVG Export Plug-In . SVG Version: 2.1.0 Build 192)  -->
  <defs>
    <style>
      .st0 {
        fill: #ffc7c7;
      }

      .st1 {
        fill: url(#linear-gradient);
        fill-rule: evenodd;
      }
    </style>
    <linearGradient id="linear-gradient" x1="122.9" y1="410.1" x2="729.6" y2="436.4" gradientTransform="translate(0 852) scale(1 -1)" gradientUnits="userSpaceOnUse">
      <stop offset="0" stop-color="#ff4105"/>
      <stop offset="1" stop-color="#f40d2a"/>
    </linearGradient>
  </defs>
  <rect class="st0" x="-.5" y="1" width="849.4" height="849.4" rx="92.9" ry="92.9"/>
  <path class="st1" d="M369.4,180.4h255.9c55,0,99.6,44.5,99.6,99.4v291.9c0,54.9-44.6,99.4-99.6,99.4h-255.9c-135.7,0-245.7-109.8-245.7-245.3s110-245.3,245.7-245.3ZM392.6,411.3c4.5-4.6,8.1-10,10.8-16.3,2.7-6.2,4.1-13.3,4.1-20.2s-1.4-13.5-4.1-19.8c-2.7-6.2-6.4-11.6-10.8-16.3-4.5-4.6-9.8-8.3-16-10.9-6.2-2.6-12.8-3.9-19.7-3.9s-13.5,1.3-19.7,3.9c-6.2,2.6-11.6,6.2-16,10.9-4.5,4.6-8.1,10-10.8,16.1-2.7,6.1-4.1,12.6-4.1,19.5s1.4,14.4,4.1,20.6c2.7,6.2,6.4,11.6,10.8,16.3,4.5,4.6,9.8,8.3,16,10.9,6.2,2.6,12.8,3.9,19.7,3.9s13.5-1.3,19.7-3.9c6.2-2.6,11.5-6.2,16-10.9ZM480.3,327.3c6.6,14.6,10,30.8,10,48.4s-2.4,28.5-7.2,41.2c0,0-55.8,184.5-56.4,186.8h-91.5l27.9-108.7h-.7c-2.3,0-4.6.1-6.9.1-19.1,0-36.7-2.9-52.9-8.7-16.2-5.8-30.1-14-41.8-24.8-11.7-10.7-20.9-23.5-27.5-38.4-6.7-14.9-10-31.5-10-49.7s3.3-31.9,10-46.2c6.6-14.3,15.9-26.8,27.7-37.3,11.8-10.6,25.9-18.9,42.2-25,16.3-6.1,34.5-9.1,53.5-9.1s36.7,3,53.1,8.9c16.3,5.9,30.5,14.2,42.5,24.7,12,10.6,21.3,23.2,28,37.8ZM549.4,342.1l-77.9,261.5h91.9l77.9-261.5h-91.9Z"/>
</svg>